<svg width="16" height="16" viewBox="0 0 16 16" fill="none" xmlns="http://www.w3.org/2000/svg">
<path d="M5.4 12.9C5.4 12.305 5.60125 11.8063 6.00375 11.4038C6.40625 11.0013 6.905 10.8 7.5 10.8C8.095 10.8 8.59375 11.0013 8.99625 11.4038C9.39875 11.8063 9.6 12.305 9.6 12.9C9.6 13.495 9.39875 13.9937 8.99625 14.3962C8.59375 14.7987 8.095 15 7.5 15C6.905 15 6.40625 14.7987 6.00375 14.3962C5.60125 13.9937 5.4 13.495 5.4 12.9ZM4 5.9L4.9975 4.92L6.8 6.7225L6.8 1L8.2 1L8.2 6.7225L10.02 4.92L11 5.9L7.5 9.4L4 5.9Z" fill="#C5C5C5"/>
</svg>
