<svg width="16" height="16" viewBox="0 0 16 16" fill="none" xmlns="http://www.w3.org/2000/svg">
<path d="M15.9181 4.50005L15.0522 4.12501L13.5931 5.58411L9.57726 4.93638C9.39254 4.41665 9.06673 3.95859 8.63635 3.61361C8.20885 3.2727 7.69349 3.05996 7.15 3L6.6522 3.4978L6.70684 7.31591L1 7.30913L2.03633 8.34546L6.72719 8.3455L6.76814 11.7L7.28633 12.2182C7.82017 12.1748 8.32916 11.9743 8.74904 11.6418C9.16893 11.3093 9.48088 10.8597 9.64543 10.35L13.6477 9.82499L15.1477 11.325L16 10.9773L15.9181 4.50005ZM14.1931 8.95233L13.7568 8.80226L9.24314 9.40226L8.8545 9.70909C8.67577 10.2805 8.29848 10.769 7.79086 11.0864V8.35915L7.73631 4.17275C8.24931 4.50768 8.63571 5.00445 8.83406 5.58411L9.23631 5.90463L13.7704 6.63413L14.1931 6.49772L14.9772 5.71362L15.0317 9.75L14.1931 8.95233Z" fill="#C5C5C5"/>
</svg>
