<svg width="16" height="16" viewBox="0 0 16 16" fill="none" xmlns="http://www.w3.org/2000/svg">
<path d="M5 13.3333L4.06667 12.4L5.11667 11.3C3.93889 11.1667 2.95833 10.6583 2.175 9.775C1.39167 8.89167 1 7.85556 1 6.66667C1 5.36667 1.45278 4.26389 2.35833 3.35833C3.26389 2.45278 4.36667 2 5.66667 2H7.66667V3.33333H5.66667C4.74444 3.33333 3.95833 3.65833 3.30833 4.30833C2.65833 4.95833 2.33333 5.74444 2.33333 6.66667C2.33333 7.46667 2.58889 8.17222 3.1 8.78333C3.61111 9.39444 4.26111 9.77778 5.05 9.93333L4.06667 8.95L5 8L7.66667 10.6667L5 13.3333ZM9 12.6667V8H15V12.6667H9ZM9 6.66667V2H15V6.66667H9ZM10.3333 5.33333H13.6667V3.33333H10.3333V5.33333Z" fill="black"/>
</svg>
