<svg width="16" height="16" viewBox="0 0 16 16" fill="none" xmlns="http://www.w3.org/2000/svg">
<path fill-rule="evenodd" clip-rule="evenodd" d="M14.5201 6V2H13.0201V4.5416C11.875 3.18303 10.1091 2.33334 8.17922 2.33334C5.00324 2.33334 2.25949 4.64036 2.0208 7.73075L2 8H3.50108L3.52296 7.7741C3.73549 5.57932 5.72517 3.83334 8.17922 3.83334C9.91528 3.83334 11.4229 4.70925 12.2288 6H9.39994V7.5H13.5621L14.5235 6.52493V6H14.5201ZM8.27005 14.25C9.37462 14.25 10.2701 13.3546 10.2701 12.25C10.2701 11.1454 9.37462 10.25 8.27005 10.25C7.16548 10.25 6.27005 11.1454 6.27005 12.25C6.27005 13.3546 7.16548 14.25 8.27005 14.25Z" fill="#424242"/>
</svg>
