<svg width="16" height="16" viewBox="0 0 16 16" fill="none" xmlns="http://www.w3.org/2000/svg">
<path d="M4.50005 1.08186L4.12501 1.94778L5.58411 3.40687L4.93638 7.42274C4.41665 7.60746 3.95859 7.93327 3.61361 8.36365C3.2727 8.79115 3.05996 9.30651 3 9.85L3.4978 10.3478L7.31591 10.2932L7.30913 16L8.34546 14.9637L8.3455 10.2728L11.7 10.2319L12.2182 9.71367C12.1748 9.17983 11.9743 8.67084 11.6418 8.25096C11.3093 7.83107 10.8597 7.51912 10.35 7.35457L9.82499 3.35227L11.325 1.85227L10.9773 1L4.50005 1.08186ZM8.95233 2.80687L8.80226 3.24324L9.40226 7.75686L9.70909 8.1455C10.2804 8.32423 10.769 8.70152 11.0864 9.20914L8.35915 9.20914L4.17275 9.26369C4.50768 8.75069 5.00444 8.36429 5.58411 8.16594L5.90463 7.76369L6.63413 3.22959L6.49772 2.80687L5.71362 2.02277L9.75 1.96825L8.95233 2.80687Z" fill="#424242"/>
</svg>
